<?xml version="1.0" encoding="UTF-8"?>
<svg xmlns="http://www.w3.org/2000/svg" id="Layer_1" data-name="Layer 1" viewBox="0 0 24 24">
  <path d="m15,11c0,.552-.448,1-1,1s-1-.448-1-1,.448-1,1-1,1,.448,1,1Zm-5-1c-.552,0-1,.448-1,1s.448,1,1,1,1-.448,1-1-.448-1-1-1Zm8.109-3.912c.47.825.891,1.65.891,2.672,0,2.01-.711,3.663-.97,4.198l.207.827c.233.933-.072,1.903-.797,2.534l-2.027,1.768c-.683.595-1.558.923-2.464.923h-1.898c-.906,0-1.781-.328-2.464-.923l-2.027-1.768c-.725-.631-1.03-1.602-.796-2.534l.207-.827c-.259-.535-.97-2.188-.97-4.198,0-1.021.421-1.847.891-2.672.547-.963,1.653-1.481,2.755-1.28.869.155,2.13.488,3.354,1.2,1.224-.712,2.485-1.045,3.354-1.2,1.098-.202,2.207.317,2.755,1.28Zm-.109,2.672c0-.778-.344-1.446-.76-2.178-.338-.595-1.024-.913-1.71-.79-.844.15-2.095.485-3.263,1.224-.163.104-.371.104-.534,0-1.167-.738-2.418-1.073-3.263-1.224-.098-.018-.195-.025-.292-.025-.582,0-1.128.306-1.418.815-.416.731-.76,1.399-.76,2.178,0,2.152.93,3.882.939,3.899.06.11.077.239.046.36l-.252,1.008c-.142.566.044,1.155.483,1.538l2.028,1.768c.501.437,1.143.677,1.807.677h.438l-.034-1.555-1.248-1.248c-.133-.133-.207-.312-.207-.5,0-.391.317-.707.707-.707h2.586c.391,0,.707.317.707.707,0,.188-.075.367-.207.5l-1.336,1.336.032,1.467h.46c.664,0,1.306-.24,1.807-.677l2.027-1.768c.44-.383.625-.972.484-1.538l-.252-1.008c-.031-.121-.014-.25.045-.359.01-.018.939-1.76.939-3.9Zm6,3.72v1.788c0,.479-.272.896-.71,1.088-.304.134-.631.134-.922.017-.594,2.184-1.096,3.609-1.289,4.026l-.647,1.87c-.215.477-.634.757-1.11.773-.47,0-.914-.233-1.141-.651l-.198-.592c-1.231.839-3.316,2.221-4.638,2.884-.421.21-.883.315-1.345.315s-.923-.105-1.344-.315c-1.321-.663-3.403-2.042-4.634-2.881l-.166.505c-.263.502-.69.743-1.177.735-.477-.017-.895-.297-1.093-.729l-.683-1.961c-.177-.374-.677-1.797-1.271-3.979-.289.117-.618.117-.922-.017-.438-.192-.71-.609-.71-1.088v-1.788c0-1.738.359-3.52,1.07-5.305-.353.021-.675-.117-.87-.392-.227-.319-.246-.738-.052-1.095C1.006,4.118,3.257,1.851,6.174.581c1.853-.808,3.961-.774,5.826.081,1.864-.856,3.973-.889,5.826-.081,2.94,1.279,5.186,3.571,6.029,5.159.19.359.167.779-.061,1.097-.197.272-.513.421-.844.388.697,1.77,1.05,3.532,1.05,5.255Zm-1,0c0-1.881-.457-3.823-1.359-5.772-.082-.176-.054-.383.07-.531.125-.148.325-.21.511-.162l.847.224c-.788-1.485-3.043-3.608-5.643-4.74-1.654-.718-3.55-.659-5.203.167-.141.07-.307.07-.447,0-1.652-.826-3.548-.885-5.203-.167C3.993,2.621,1.829,4.697,1.026,6.167l.777-.159c.185-.036.376.031.494.178.117.148.142.35.062.521-.902,1.949-1.359,3.892-1.359,5.772v1.788c0,.106.07.154.112.172.043.02.125.04.202-.033l.272-.249c.129-.119.312-.159.479-.111.168.05.298.184.342.354.684,2.62,1.252,4.215,1.42,4.577l.685,1.964c.043.089.167.104.209.103.051,0,.156-.016.219-.131l.337-1.056c.049-.15.166-.269.315-.318.052-.018.106-.026.16-.026.1,0,.2.03.284.089,1.026.709,3.575,2.439,5.065,3.188.562.281,1.232.281,1.793,0,1.49-.748,4.039-2.479,5.065-3.188.129-.091.293-.113.444-.062.149.05.267.168.315.318l.373,1.14c.03.039.143.061.192.046.046,0,.16-.019.218-.146l.649-1.873c.187-.409.755-2.004,1.439-4.624.044-.17.174-.304.342-.354.17-.048.351-.008.479.111l.271.249c.078.072.16.052.203.033.042-.018.112-.065.112-.172v-1.788Z"/>
</svg>
